<?xml version="1.0" encoding="UTF-8"?>
<!DOCTYPE svg PUBLIC "-//W3C//DTD SVG 1.1//EN" "http://www.w3.org/Graphics/SVG/1.1/DTD/svg11.dtd">
<svg xmlns="http://www.w3.org/2000/svg" version="1.1" width="512px" height="512px" style="shape-rendering:geometricPrecision; text-rendering:geometricPrecision; image-rendering:optimizeQuality; fill-rule:evenodd; clip-rule:evenodd" xmlns:xlink="http://www.w3.org/1999/xlink">
<g><path style="opacity:0.972" fill="#000000" d="M 244.5,20.5 C 280.251,17.7807 305.751,32.4473 321,64.5C 325.429,75.7419 327.262,87.4086 326.5,99.5C 363.168,99.3333 399.835,99.5 436.5,100C 440.499,100.668 443.332,102.835 445,106.5C 445.667,153.167 445.667,199.833 445,246.5C 442.653,251.26 438.819,253.927 433.5,254.5C 407.381,241.62 385.548,246.62 368,269.5C 356.16,292.624 359.326,313.457 377.5,332C 388.62,340.948 401.287,344.281 415.5,342C 421.428,339.866 427.428,338.033 433.5,336.5C 438.983,336.158 442.816,338.491 445,343.5C 445.667,390.167 445.667,436.833 445,483.5C 443.413,486.756 440.913,488.923 437.5,490C 316.167,490.667 194.833,490.667 73.5,490C 70.087,488.923 67.587,486.756 66,483.5C 65.3333,357.833 65.3333,232.167 66,106.5C 67.668,102.835 70.5013,100.668 74.5,100C 111.165,99.5 147.832,99.3333 184.5,99.5C 184.24,57.4632 204.24,31.1299 244.5,20.5 Z M 247.5,45.5 C 276.338,44.1647 294.172,57.4981 301,85.5C 301.624,95.6352 300.957,105.635 299,115.5C 300.415,119.251 302.915,122.084 306.5,124C 344.832,124.5 383.165,124.667 421.5,124.5C 421.5,157.5 421.5,190.5 421.5,223.5C 376.949,219.178 348.782,238.512 337,281.5C 332.305,314.12 343.472,339.62 370.5,358C 386.434,367.086 403.434,369.92 421.5,366.5C 421.5,399.5 421.5,432.5 421.5,465.5C 310.833,465.5 200.167,465.5 89.5,465.5C 89.5,351.833 89.5,238.167 89.5,124.5C 128.586,124.988 167.586,124.488 206.5,123C 209.381,121.749 211.214,119.583 212,116.5C 211.518,108.518 210.685,100.518 209.5,92.5C 211.212,67.8037 223.879,52.137 247.5,45.5 Z"/></g>
</svg>
