<?xml version="1.0" standalone="no"?>
<!DOCTYPE svg PUBLIC "-//W3C//DTD SVG 20010904//EN"
 "http://www.w3.org/TR/2001/REC-SVG-20010904/DTD/svg10.dtd">
<svg version="1.0" xmlns="http://www.w3.org/2000/svg"
 width="512.000000pt" height="512.000000pt" viewBox="0 0 512.000000 512.000000"
 preserveAspectRatio="xMidYMid meet">

<g transform="translate(0.000000,512.000000) scale(0.100000,-0.100000)"
fill="#000000" stroke="none">
<path d="M3949 4830 c-156 -26 -267 -165 -256 -320 6 -94 32 -142 136 -255
348 -376 556 -798 643 -1305 30 -171 32 -575 5 -750 -79 -501 -289 -937 -631
-1310 -125 -136 -151 -188 -151 -295 1 -96 23 -153 84 -214 115 -115 293 -126
414 -25 48 40 196 204 270 299 186 238 374 576 471 845 273 763 243 1589 -86
2325 -133 300 -343 612 -576 856 -92 98 -145 134 -207 144 -22 4 -47 8 -55 10
-8 1 -36 -1 -61 -5z"/>
<path d="M2208 4526 c-53 -19 -42 -11 -570 -407 l-476 -358 -479 -3 c-536 -3
-513 0 -597 -78 -30 -28 -52 -60 -66 -96 -20 -54 -20 -73 -20 -1023 0 -1064
-3 -1017 61 -1094 17 -20 52 -49 77 -65 l47 -27 483 -3 484 -3 496 -371 c274
-204 515 -379 537 -389 54 -25 150 -25 208 0 47 20 109 77 135 126 16 28 17
178 20 1815 l2 1784 -25 53 c-28 56 -65 92 -128 125 -52 26 -140 33 -189 14z"/>
<path d="M3130 4127 c-155 -44 -248 -195 -219 -354 13 -73 34 -106 132 -218
320 -364 448 -844 347 -1305 -57 -261 -164 -466 -362 -693 -37 -43 -77 -95
-88 -117 -108 -212 55 -465 288 -447 95 7 157 43 253 145 296 317 479 696 545
1136 22 147 22 442 0 586 -58 372 -185 677 -402 965 -118 157 -210 250 -279
281 -67 31 -152 39 -215 21z"/>
</g>
</svg>
