<?xml version="1.0" standalone="no"?>
<!DOCTYPE svg PUBLIC "-//W3C//DTD SVG 20010904//EN"
 "http://www.w3.org/TR/2001/REC-SVG-20010904/DTD/svg10.dtd">
<svg version="1.0" xmlns="http://www.w3.org/2000/svg"
 width="512.000000pt" height="512.000000pt" viewBox="0 0 512.000000 512.000000"
 preserveAspectRatio="xMidYMid meet">

<g transform="translate(0.000000,512.000000) scale(0.100000,-0.100000)"
fill="#000000" stroke="none">
<path d="M2500 5109 c-33 -14 -68 -47 -88 -84 -15 -26 -17 -79 -20 -417 l-3
-386 -22 -5 c-12 -3 -44 -9 -72 -12 -242 -33 -535 -159 -748 -322 -333 -256
-580 -669 -632 -1058 -3 -27 -9 -60 -12 -72 l-5 -22 -386 -3 c-343 -3 -391 -5
-418 -20 -123 -67 -123 -229 0 -296 27 -15 75 -17 418 -20 l386 -3 5 -22 c3
-12 9 -44 12 -72 33 -242 159 -535 322 -748 256 -333 669 -580 1058 -632 28
-3 60 -9 72 -12 l22 -5 3 -386 c3 -343 5 -391 20 -418 67 -123 229 -123 296 0
15 27 17 75 20 418 l3 386 22 5 c12 3 45 9 72 12 389 52 802 299 1058 632 163
213 289 506 322 748 3 28 9 60 12 72 l5 22 386 3 c343 3 391 5 418 20 123 67
123 229 0 296 -27 15 -75 17 -418 20 l-386 3 -5 22 c-3 12 -9 45 -12 72 -33
242 -159 535 -322 748 -256 333 -669 580 -1058 632 -27 3 -60 9 -72 12 l-23 5
0 362 c0 198 -5 379 -10 400 -17 77 -73 127 -147 132 -26 2 -59 -1 -73 -7z
m-88 -1865 c67 -123 229 -123 296 0 15 27 17 71 20 337 l3 306 77 -14 c404
-75 762 -347 951 -721 42 -82 96 -246 114 -344 l14 -77 -306 -3 c-266 -3 -310
-5 -337 -20 -123 -67 -123 -229 0 -296 27 -15 71 -17 337 -20 l306 -3 -14 -77
c-75 -404 -347 -762 -721 -951 -82 -42 -246 -96 -344 -114 l-77 -14 -3 306
c-3 266 -5 310 -20 337 -67 123 -229 123 -296 0 -15 -27 -17 -71 -20 -337 l-3
-306 -77 14 c-470 87 -866 433 -1017 886 -19 56 -40 137 -48 179 l-14 77 306
3 c266 3 310 5 337 20 123 67 123 229 0 296 -27 15 -71 17 -337 20 l-306 3 14
77 c98 529 518 954 1046 1061 l92 18 5 -306 c4 -264 7 -310 22 -337z"/>
</g>
</svg>
