<?xml version="1.0" standalone="no"?>
<!DOCTYPE svg PUBLIC "-//W3C//DTD SVG 20010904//EN"
 "http://www.w3.org/TR/2001/REC-SVG-20010904/DTD/svg10.dtd">
<svg version="1.0" xmlns="http://www.w3.org/2000/svg"
 width="512.000000pt" height="512.000000pt" viewBox="0 0 512.000000 512.000000"
 preserveAspectRatio="xMidYMid meet">

<g transform="translate(0.000000,512.000000) scale(0.100000,-0.100000)"
fill="#000000" stroke="none">
<path d="M2396 5105 c-375 -78 -655 -353 -730 -717 -14 -68 -16 -206 -16
-1120 l0 -1043 -123 -123 -123 -123 -12 78 c-7 43 -12 181 -12 311 0 266 -5
293 -64 317 -49 21 -227 20 -270 0 -56 -27 -61 -44 -64 -222 -7 -302 17 -517
79 -708 l28 -90 -277 -280 c-313 -316 -326 -334 -326 -450 -1 -117 54 -208
159 -263 68 -36 176 -37 250 -4 42 19 349 322 1872 1845 1526 1525 1826 1830
1845 1872 30 67 31 171 2 236 -70 152 -237 215 -389 145 -52 -24 -106 -73
-407 -374 l-348 -346 0 132 c0 212 -42 366 -142 519 -127 195 -321 335 -543
394 -104 27 -292 34 -389 14z"/>
<path d="M2757 2102 l-707 -708 62 -36 c285 -167 666 -155 947 30 179 118 313
298 378 509 27 87 27 90 31 438 2 193 2 378 0 413 l-3 62 -708 -708z"/>
<path d="M3802 2685 c-56 -25 -62 -53 -62 -322 0 -269 -13 -374 -61 -518 -56
-165 -142 -306 -264 -434 -193 -202 -416 -318 -695 -361 -244 -37 -551 25
-764 157 l-58 36 -140 -140 -139 -140 83 -55 c170 -113 379 -200 567 -234 l91
-17 0 -133 0 -134 -426 0 -426 0 -28 -28 c-34 -35 -44 -89 -38 -205 5 -93 22
-130 70 -146 43 -15 2053 -15 2096 0 48 16 65 53 70 146 6 116 -4 170 -38 205
l-28 28 -426 0 -426 0 0 134 0 134 68 12 c627 108 1145 618 1277 1255 23 112
38 350 33 540 -4 176 -9 194 -64 220 -43 20 -226 20 -272 0z"/>
</g>
</svg>
