<?xml version="1.0" standalone="no"?>
<!DOCTYPE svg PUBLIC "-//W3C//DTD SVG 20010904//EN"
 "http://www.w3.org/TR/2001/REC-SVG-20010904/DTD/svg10.dtd">
<svg version="1.0" xmlns="http://www.w3.org/2000/svg"
 width="512.000000pt" height="512.000000pt" viewBox="0 0 512.000000 512.000000"
 preserveAspectRatio="xMidYMid meet">

<g transform="translate(0.000000,512.000000) scale(0.100000,-0.100000)"
fill="#000000" stroke="none">
<path d="M2390 5105 c-323 -59 -592 -263 -735 -559 -56 -115 -82 -212 -95
-351 -13 -145 -13 -1655 0 -1797 24 -252 121 -459 298 -635 489 -486 1305
-343 1607 281 56 115 82 212 95 351 13 146 13 1654 0 1800 -13 139 -39 236
-95 351 -197 407 -640 637 -1075 559z"/>
<path d="M1063 2650 c-67 -16 -116 -62 -134 -125 -14 -51 3 -269 32 -400 72
-330 252 -644 494 -861 243 -219 536 -360 845 -408 l75 -12 3 -242 2 -242
-347 0 c-317 0 -352 -2 -389 -19 -133 -61 -134 -261 -1 -322 40 -18 79 -19
917 -19 838 0 877 1 917 19 133 61 132 261 -1 322 -37 17 -72 19 -389 19
l-347 0 2 242 3 242 75 12 c660 102 1194 609 1339 1269 29 129 46 349 32 400
-12 46 -47 87 -94 111 -40 21 -123 22 -162 1 -70 -36 -90 -83 -104 -242 -29
-343 -150 -604 -388 -837 -486 -475 -1280 -475 -1766 0 -238 233 -359 494
-388 837 -11 126 -23 169 -58 209 -35 39 -110 60 -168 46z"/>
</g>
</svg>
